# xmcd CD database file
#
# Track frame offsets:
#	150
#	17186
#	48243
#	72224
#	94381
#	115732
#	134224
#	154828
#	178988
#	201465
#	223986
#	243194
#	260054
#
# Disc length: 3790 seconds
#
# Revision: 0
# Processed by: cddbd v1.5PL3 Copyright (c) Steve Scherf et al.
# Submitted via: NeoAudio 9.9.9
#
DISCID=d00ecc0d
DTITLE=Varios - Coleccion Milenium 2
DYEAR=2004
DGENRE=New Age
TTITLE0=Through your eyes
TTITLE1=Embrance
TTITLE2=First Daughter of the moon
TTITLE3=Last moments
TTITLE4=The unforgetting Heart
TTITLE5=Fragant Memory
TTITLE6=Pan's Return
TTITLE7=Summer of 300 years
TTITLE8=Love´s story
TTITLE9=Hanalei Bay
TTITLE10=Sweet return
TTITLE11=Memories of you
TTITLE12=Once in the long Ago
EXTD=YEAR: 2004
EXTT0=
EXTT1=
EXTT2=
EXTT3=
EXTT4=
EXTT5=
EXTT6=
EXTT7=
EXTT8=
EXTT9=
EXTT10=
EXTT11=
EXTT12=
PLAYORDER=
